<svg width="26" height="26" viewBox="0 0 26 26" fill="none" xmlns="http://www.w3.org/2000/svg">
<g clip-path="url(#clip0_671_11018)">
<path d="M10.5951 10.3278C12.9883 10.3278 14.9284 8.3877 14.9284 5.99447C14.9284 3.60123 12.9883 1.66113 10.5951 1.66113C8.20182 1.66113 6.26172 3.60123 6.26172 5.99447C6.26172 8.3877 8.20182 10.3278 10.5951 10.3278Z" fill="#435DE2"/>
<path d="M11.8732 22.981C11.6346 22.745 11.4788 22.4379 11.4293 22.1059C11.3799 21.7739 11.4393 21.4348 11.5988 21.1394L11.9816 20.4171L11.1943 20.1788C10.8733 20.0783 10.5938 19.8759 10.3983 19.6021C10.2028 19.3284 10.1019 18.9984 10.111 18.6621V17.1816C10.1104 16.8468 10.2175 16.5207 10.4165 16.2515C10.6155 15.9823 10.8958 15.7842 11.216 15.6866L12.0032 15.4482L11.6277 14.726C11.4729 14.4347 11.414 14.1019 11.4594 13.7751C11.5047 13.4483 11.6521 13.1442 11.8804 12.906C11.3248 12.8333 10.7652 12.7947 10.2049 12.7905C8.54979 12.7515 6.90648 13.0783 5.39218 13.7474C3.87787 14.4165 2.52987 15.4116 1.44434 16.6616V22.2588C1.44434 22.4503 1.52043 22.6341 1.65587 22.7695C1.79131 22.9049 1.97501 22.981 2.16656 22.981H11.8732Z" fill="#435DE2"/>
<path d="M24.3388 16.9433L22.8944 16.51C22.7945 16.1532 22.6539 15.8091 22.4755 15.4844L23.1977 14.1411C23.2256 14.0912 23.2358 14.0334 23.2266 13.977C23.2174 13.9206 23.1894 13.869 23.1471 13.8305L22.0999 12.7761C22.0596 12.7368 22.0082 12.7109 21.9526 12.7019C21.8971 12.6928 21.8401 12.7011 21.7894 12.7255L20.4532 13.4477C20.1244 13.2689 19.7784 13.1237 19.4205 13.0144L18.9799 11.57C18.9605 11.5167 18.9251 11.4708 18.8786 11.4384C18.832 11.4061 18.7766 11.389 18.7199 11.3894H17.2177C17.1614 11.391 17.1069 11.4098 17.0617 11.4434C17.0165 11.477 16.9827 11.5237 16.9649 11.5772L16.5316 13.0216C16.1671 13.1287 15.8158 13.2765 15.4844 13.4622L14.1771 12.74C14.1263 12.713 14.0683 12.7026 14.0113 12.7104C13.9542 12.7182 13.9011 12.7437 13.8594 12.7833L12.7977 13.8233C12.7559 13.8636 12.7283 13.9164 12.7192 13.9737C12.7101 14.0311 12.7199 14.0898 12.7471 14.1411L13.4694 15.4555C13.2757 15.7816 13.1183 16.128 12.9999 16.4883L11.5555 16.9289C11.5008 16.9447 11.4529 16.9779 11.419 17.0236C11.385 17.0692 11.367 17.1248 11.3677 17.1816V18.6622C11.367 18.7191 11.385 18.7746 11.419 18.8202C11.4529 18.8659 11.5008 18.8992 11.5555 18.915L12.9999 19.3555C13.1082 19.7092 13.2535 20.0506 13.4332 20.3739L12.711 21.7461C12.6838 21.7974 12.674 21.8561 12.6831 21.9134C12.6922 21.9708 12.7198 22.0236 12.7616 22.0639L13.8377 23.1111C13.8794 23.1507 13.9326 23.1762 13.9896 23.184C14.0466 23.1918 14.1046 23.1814 14.1555 23.1544L15.506 22.4322C15.8272 22.6055 16.1662 22.7435 16.5171 22.8439L16.9505 24.3244C16.9686 24.379 17.0035 24.4265 17.0502 24.4602C17.0968 24.4939 17.1529 24.5121 17.2105 24.5122H18.691C18.7473 24.5106 18.8018 24.4918 18.847 24.4582C18.8922 24.4246 18.926 24.3779 18.9438 24.3244L19.3771 22.8439C19.7237 22.7442 20.058 22.6061 20.3738 22.4322L21.7388 23.1544C21.7896 23.1814 21.8477 23.1918 21.9047 23.184C21.9617 23.1762 22.0148 23.1507 22.0566 23.1111L23.111 22.0639C23.1507 22.0221 23.1762 21.969 23.1839 21.912C23.1917 21.8549 23.1814 21.7969 23.1544 21.7461L22.4321 20.3883C22.6045 20.0717 22.7425 19.7376 22.8438 19.3916L24.2883 18.9511C24.3425 18.9336 24.3902 18.9001 24.425 18.855C24.4598 18.8099 24.4801 18.7552 24.4833 18.6983V17.2033C24.485 17.1509 24.4725 17.0991 24.4471 17.0533C24.4216 17.0075 24.3842 16.9695 24.3388 16.9433ZM17.9616 20.3522C17.4842 20.3536 17.0171 20.2134 16.6195 19.9492C16.2218 19.685 15.9115 19.3087 15.7278 18.8681C15.5442 18.4275 15.4954 17.9422 15.5876 17.4738C15.6799 17.0054 15.909 16.5749 16.2461 16.2368C16.5832 15.8988 17.013 15.6683 17.4811 15.5746C17.9492 15.481 18.4346 15.5283 18.8758 15.7107C19.317 15.893 19.6942 16.2022 19.9595 16.5991C20.2249 16.9959 20.3666 17.4626 20.3666 17.94C20.3666 18.5785 20.1134 19.1909 19.6626 19.6431C19.2118 20.0953 18.6001 20.3503 17.9616 20.3522Z" fill="#435DE2"/>
</g>
<defs>
<clipPath id="clip0_671_11018">
<rect width="26" height="26" fill="white"/>
</clipPath>
</defs>
</svg>
