<svg width="24" height="24" viewBox="0 0 24 24" fill="none" xmlns="http://www.w3.org/2000/svg">
<path d="M13.61 12.243C13.604 12.5598 13.504 12.8676 13.3228 13.1276C13.1416 13.3875 12.8873 13.5877 12.5921 13.703C12.297 13.8182 11.9743 13.8432 11.6649 13.7748C11.3555 13.7064 11.0734 13.5477 10.8544 13.3188C10.6353 13.0899 10.4891 12.8011 10.4344 12.489C10.3796 12.1769 10.4187 11.8556 10.5468 11.5658C10.6749 11.276 10.8861 11.0307 11.1537 10.8611C11.4213 10.6915 11.7332 10.6051 12.05 10.613C12.4709 10.6286 12.8692 10.8075 13.1604 11.1118C13.4516 11.4161 13.6129 11.8218 13.61 12.243Z" fill="#EBEBEB"/>
<path d="M14.763 7.233H9.33797C8.80117 7.233 8.28635 7.44624 7.90678 7.82582C7.52721 8.20539 7.31396 8.7202 7.31396 9.257V14.804C7.31396 15.0698 7.36632 15.333 7.46803 15.5786C7.56975 15.8241 7.71883 16.0472 7.90678 16.2352C8.09473 16.4231 8.31785 16.5722 8.56341 16.6739C8.80898 16.7757 9.07217 16.828 9.33797 16.828H14.763C15.0288 16.828 15.292 16.7757 15.5375 16.6739C15.7831 16.5722 16.0062 16.4231 16.1941 16.2352C16.3821 16.0472 16.5312 15.8241 16.6329 15.5786C16.7346 15.333 16.787 15.0698 16.787 14.804V9.267C16.788 9.00044 16.7365 8.73629 16.6352 8.48969C16.534 8.24309 16.3851 8.01889 16.1971 7.82994C16.0091 7.64098 15.7856 7.49099 15.5395 7.38856C15.2934 7.28613 15.0295 7.23326 14.763 7.233ZM12.05 14.956C11.5129 14.9681 10.9845 14.82 10.532 14.5304C10.0795 14.2409 9.72362 13.8231 9.50965 13.3304C9.29568 12.8376 9.23338 12.2923 9.33068 11.7641C9.42799 11.2358 9.68049 10.7485 10.056 10.3643C10.4314 9.98017 10.9129 9.71661 11.4388 9.60727C11.9647 9.49794 12.5113 9.54778 13.0088 9.75045C13.5062 9.95312 13.9321 10.2994 14.2318 10.7451C14.5316 11.1909 14.6918 11.7158 14.692 12.253C14.6961 12.604 14.631 12.9523 14.5004 13.2781C14.3698 13.604 14.1763 13.9009 13.931 14.1519C13.6856 14.4029 13.3932 14.6031 13.0705 14.7411C12.7477 14.8791 12.4009 14.9521 12.05 14.956ZM14.986 9.551C14.92 9.55101 14.8547 9.53786 14.7938 9.51231C14.733 9.48676 14.6778 9.44933 14.6317 9.40221C14.5855 9.35509 14.5491 9.29922 14.5248 9.23789C14.5005 9.17655 14.4886 9.11097 14.49 9.045C14.49 8.9108 14.5433 8.7821 14.6382 8.68721C14.7331 8.59231 14.8618 8.539 14.996 8.539C15.1302 8.539 15.2589 8.59231 15.3538 8.68721C15.4487 8.7821 15.502 8.9108 15.502 9.045C15.504 9.11644 15.4905 9.18746 15.4625 9.25321C15.4345 9.31895 15.3926 9.37787 15.3397 9.42592C15.2868 9.47397 15.2241 9.51003 15.156 9.53162C15.0879 9.55321 15.0159 9.55982 14.945 9.551H14.986Z" fill="#EBEBEB"/>
<path d="M12.05 2C9.39784 1.98674 6.84903 3.02759 4.96429 4.89358C3.07955 6.75957 2.01326 9.29784 2 11.95C1.98674 14.6022 3.02759 17.151 4.89358 19.0357C6.75957 20.9205 9.29784 21.9867 11.95 22C13.2632 22.0066 14.5649 21.7544 15.7806 21.2579C16.9964 20.7615 18.1025 20.0304 19.0357 19.1064C19.9689 18.1825 20.7111 17.0838 21.2197 15.873C21.7283 14.6623 21.9934 13.3632 22 12.05C22.0066 10.7368 21.7544 9.43513 21.2579 8.21936C20.7615 7.00359 20.0304 5.89752 19.1064 4.96429C18.1825 4.03106 17.0838 3.28896 15.873 2.78034C14.6623 2.27173 13.3632 2.00657 12.05 2ZM18.123 14.702C18.1258 15.1506 18.0395 15.5954 17.8691 16.0104C17.6988 16.4254 17.4477 16.8025 17.1305 17.1198C16.8133 17.4371 16.4363 17.6883 16.0213 17.8587C15.6063 18.0292 15.1616 18.1157 14.713 18.113H9.389C8.94044 18.1155 8.49584 18.029 8.08093 17.8586C7.66601 17.6881 7.28903 17.4371 6.9718 17.1199C6.65457 16.8028 6.40339 16.4259 6.23281 16.011C6.06222 15.5961 5.97562 15.1516 5.978 14.703V9.378C5.97522 8.92937 6.06151 8.48465 6.23188 8.06961C6.40225 7.65458 6.6533 7.27749 6.97049 6.9602C7.28769 6.64292 7.6647 6.39175 8.07969 6.22126C8.49467 6.05077 8.93937 5.96435 9.388 5.967H14.713C15.1616 5.96435 15.6062 6.05074 16.0211 6.22117C16.436 6.3916 16.813 6.64267 17.1302 6.95985C17.4473 7.27703 17.6984 7.654 17.8688 8.06892C18.0393 8.48384 18.1257 8.92845 18.123 9.377V14.702Z" fill="#EBEBEB"/>
</svg>
