<svg width="289" height="148" viewBox="0 0 289 148" fill="none" xmlns="http://www.w3.org/2000/svg">
<path d="M1.2723 85.6576C11.9292 85.4976 23.298 82.5366 32.808 80.1492C58.3203 73.7445 84.415 65.3214 104.655 52.972C115.885 46.1198 129.442 37.6974 134.621 27.0393C137.345 21.4347 139.77 13.2122 135.433 6.76403C126.998 -5.77731 104.767 6.89724 99.9838 13.1521C95.2005 19.4071 91.2651 26.407 89.8589 33.8409C87.0225 48.8358 93.2791 64.1501 99.9481 79.4559C107.611 97.0423 121.314 115.943 116.546 133.319C115.196 138.238 112.8 142.473 107.744 145.58C105.58 146.91 104.421 147.431 106.528 145.004C110.537 140.385 119.232 137.359 125.216 134.352C142.733 125.55 161.424 117.512 181.496 111.561C213.532 102.064 250.784 100.091 287.586 102.17" stroke="#435DE2" stroke-width="2" stroke-linecap="round"/>
</svg>
